<svg xmlns="http://www.w3.org/2000/svg" version="1.2" viewBox="0 0 500 499" width="500" height="499">
	<title>photo_5463166253138035948_x</title>
	<style>
		.s0 { fill: #61dbfb } 
	</style>
	<g id="Background">
		<path id="Path 1" fill-rule="evenodd" class="s0" d="m246.5 63.1c2.8 0 7.9 0.5 11.5 1.3 3.6 0.7 9.4 2.8 13 4.6 4 2 8.8 5.7 12.5 9.4 3.5 3.5 7.4 8.8 9.2 12.6 1.8 3.6 3.7 9 4.3 12 0.6 3 1 8.1 1 11.2 0 3.2-0.5 8.2-1.1 11-0.6 2.9-2.8 8.4-4.8 12.2-2 3.8-5.6 8.8-8.1 11.2-2.5 2.4-5.6 5.2-7 6.3-1.4 1-5.6 3.4-9.5 5.2-6.8 3.3-7.4 3.4-20 3.4-12.4 0-13.3-0.1-20.5-3.2-5.3-2.3-9.6-5.1-14.5-9.6-4.4-4-8.2-8.6-10.2-12.3-1.7-3.2-3.8-8.6-4.7-11.9-0.9-3.3-1.6-8.8-1.6-12.2 0-3.5 0.5-8.7 1.1-11.5 0.6-2.9 2.5-8.2 4.3-11.8 1.9-4 5.4-8.8 9.1-12.5 3.3-3.3 8.9-7.5 12.5-9.4 3.6-1.9 9.2-4 12.5-4.7 3.3-0.7 8.3-1.3 11-1.3zm-5.5 107c12.4 0 31.3 0.6 42 1.4 10.7 0.8 25.6 2.4 33 3.5 7.4 1.2 19.1 3.3 26 4.7 6.9 1.4 19.3 4.3 27.5 6.4 8.3 2.1 17.4 4.8 20.3 5.9 2.8 1.1 8 3.4 11.4 5.1 3.5 1.7 9 5.1 12.3 7.4 3.3 2.3 8.1 6.6 10.7 9.4 2.7 2.8 6 7.7 7.5 10.9 2.3 4.7 2.8 7 2.8 13.7 0 7.3-0.3 8.5-3.6 14.5-2 3.6-5.5 8.2-7.8 10.3-2.2 2-6.7 5.4-9.9 7.4-3.1 2-10.2 5.8-15.7 8.4-5.5 2.6-15.4 6.3-22 8.3-6.6 1.9-15.6 4.3-20 5.1-4.4 0.9-9 1.8-10.3 2-2 0.5-1.8 0 1.7-4.8 2.2-2.8 5.8-8.6 12.1-20.2l10.2-3.2c5.7-1.7 13.4-4.4 17.3-6 3.9-1.6 8.6-3.8 10.5-4.9 1.9-1 5.4-3.3 7.8-5.1 2.3-1.8 4.9-4.6 5.7-6.3 0.8-1.7 1.5-4.5 1.5-6.3 0-1.7-0.9-4.5-1.9-6.2-1.1-1.7-3.9-4.6-6.2-6.6-2.4-1.9-6.4-4.7-8.9-6.1-2.5-1.4-7.4-3.8-11-5.3-3.6-1.5-10.1-3.8-14.5-5-4.4-1.3-13.2-3.5-19.5-5-6.3-1.5-18.9-4-28-5.6-9.1-1.5-24.9-3.5-35.3-4.4-10.3-0.8-26.3-1.5-35.7-1.5-9.3 0-24.8 0.5-34.3 1-9.4 0.6-21.9 1.5-27.7 2.1-5.8 0.5-16.1 1.9-23 3-6.9 1.1-17.7 3.1-24 4.6-6.3 1.4-15.1 3.8-19.5 5.3-4.4 1.5-10.7 3.9-14 5.4-3.3 1.5-8 3.7-10.4 4.9-2.4 1.2-6.4 4-9 6.3-2.5 2.2-5.2 5.4-5.9 7-0.9 1.9-1.1 4.3-0.7 6.9 0.5 3 1.9 5.2 5.3 8.5 2.6 2.5 6.9 5.8 9.7 7.4 2.7 1.5 7.7 3.9 11 5.3 3.3 1.3 9.4 3.6 13.5 5 4.1 1.3 12.7 3.8 19 5.3 6.3 1.6 18.5 4.1 27 5.5 8.5 1.5 23.2 3.3 32.5 4.1 9.3 0.8 26.4 1.7 38 2 12.1 0.4 29.5 0.2 41-0.5 11-0.6 23.4-1.4 35-2.5l-2.1 3c-1.2 1.6-5.6 6.8-17.4 20.4l-12.8 0.7c-7 0.5-24 0.7-37.7 0.6-13.8 0-33.3-0.8-43.5-1.7-10.2-0.8-25.7-2.7-34.5-4.1-8.8-1.5-21.8-4.2-29-6-7.2-1.8-18-5-24-7-6-2-14.6-5.4-19-7.6-4.4-2.1-11.1-6.2-14.9-9.1-3.8-2.9-9-7.8-11.4-10.8-2.5-3-5.3-7.3-6.3-9.5-1.2-2.6-1.9-6.4-1.9-11 0-5.7 0.5-8 2.8-12.4 1.6-3.2 5.6-8.1 10-12.2 4-3.9 11.5-9.4 17-12.6 5.3-3.2 12.6-6.8 16.2-8.1 3.6-1.3 10.1-3.4 14.5-4.7 4.4-1.3 13.6-3.7 20.5-5.3 6.9-1.6 19.7-4.2 28.5-5.6 8.8-1.5 23.4-3.3 32.5-4 9.1-0.8 26.6-1.4 39-1.5zm-64 35.6c3.6 0.2 9.7 0.9 13.5 1.5 3.8 0.6 11.3 2.4 16.5 4 5.2 1.6 12.9 4.2 17 5.8 4.1 1.5 13.6 5.6 21 8.9 7.4 3.4 18 8.7 23.5 11.8 5.5 3.1 15.9 9.4 23 14.1 7.1 4.7 16.3 11.1 20.3 14.1 4.9 3.7 6.9 5.8 6 6.2-0.7 0.4-4.6 1.2-8.5 1.8-4 0.6-10.7 1.1-14.8 1.1-7.5 0-7.5 0-17.7-6.3-5.7-3.5-13.4-8.2-17.3-10.4-3.9-2.3-10.4-5.9-14.5-8-4.1-2.2-11.8-5.9-17-8.2-5.2-2.4-14.2-5.8-20-7.7-5.8-1.9-15.4-4.3-21.5-5.4-6.1-1.1-13.4-2-16.2-2-2.9 0-6.8 0.6-8.5 1.4-1.8 0.7-4.1 2.2-5 3.2-1 1.1-2 3.5-2.4 5.4-0.4 2.5 0.3 6.3 2.5 13 1.7 5.2 4.7 12 10.4 20.5l-5.9-0.9c-3.3-0.4-9.7-1.7-14.4-2.7-4.7-1-8.6-2-8.7-2.1-0.2-0.2-1.4-4.4-2.8-9.3-2.1-7.4-2.5-10.7-2.3-18.5 0.2-7.5 0.8-10.4 2.6-13.8 1.2-2.3 3.2-5.3 4.5-6.6 1.2-1.3 4-3.5 6.2-4.8 2.2-1.4 5.6-3 7.5-3.7 1.9-0.6 6.4-1.5 10-2 3.6-0.5 9.4-0.7 13-0.4zm143.5 0.4c3.9 0 10 0.4 13.8 0.9 3.7 0.6 8.5 1.9 10.7 3 2.2 1.1 5.7 3.5 7.8 5.4 2.1 1.9 5 6.1 6.6 9.7 2.7 6 2.9 7 2.3 15.9q-0.5 9.5-3 16.5c-1.3 3.9-3.7 9.5-5.2 12.5-1.5 3-4.6 8.2-6.8 11.5-2.2 3.3-6.5 9.1-9.6 13-3 3.9-12.5 14-21 22.5-8.6 8.5-20.8 19.8-27.1 25.1-6.3 5.2-13.2 10.7-19 14.9l-3.2-2.4c-1.8-1.3-5.9-4.2-14.8-10.6l9.3-7.2c5-3.9 13.7-11 19.2-15.7 5.5-4.7 14.3-12.9 19.5-18.1 5.2-5.2 12.7-13.3 16.6-18 3.9-4.7 8.4-10.5 10.1-13 1.6-2.5 4.3-7 6-10 1.7-3 4-8.7 5.2-12.5 1.2-3.8 2.1-8 2.1-9.3 0-1.2-0.8-3.9-1.7-5.9-1.2-2.3-3-4.1-5-5-1.8-0.7-6.6-1.3-10.5-1.3-4 0-11.4 0.6-16.3 1.4-4.9 0.7-13.5 2.8-29 7.9l-6-3.8c-3.3-2.1-8.5-5-11.5-6.5-5.5-2.7-5.5-2.7-3-4 1.4-0.7 6.3-2.8 11-4.7 4.7-1.8 13.2-4.8 19-6.5 5.8-1.7 14.1-3.6 18.5-4.3 4.4-0.7 11.1-1.3 15-1.4zm-103.3 36.9c0.5 0 4.5 1.6 9 3.7 4.6 2 9.8 4.5 11.5 5.5 1.8 1 3.3 2 3.3 2.3 0 0.3-4.6 3.1-10.3 6.2-5.6 3.1-13.4 7.7-24.2 14.5l-12-1.1c-6.6-0.6-13.8-1.4-20-2.4l3-2.4c1.7-1.3 6.2-4.8 10-7.6 3.8-2.9 9.7-7.1 13-9.3 3.3-2.3 8.3-5.3 11-6.7 2.8-1.5 5.3-2.7 5.8-2.7zm-74.3 54.5c0.8 0.2 6 1.4 11.5 2.5 5.5 1.2 10.9 2.4 12 2.7 1.7 0.4-0.3 2.8-12.1 14.6-7.7 7.8-17.4 18-21.6 22.7-4.1 4.7-9.6 11.4-12.2 15-2.7 3.6-6.1 9-7.6 12-1.5 3-3.5 8-4.4 11-0.9 3-1.6 7.7-1.6 10.5-0.1 3.5 0.5 5.5 1.7 6.7 1 1 3.6 2.4 5.8 3.2 2.2 0.9 6.6 1.5 9.7 1.6 3.2 0 10.6-0.9 16.5-2 6-1.2 14.4-3.4 18.8-5 4.4-1.6 11.4-4.3 15.5-6 4.1-1.7 13.3-6 20.5-9.6 7.2-3.6 16.2-8.4 27-15l7.5 6.1c4.1 3.3 8.4 6.6 9.5 7.2 1.1 0.6 1.8 1.3 1.5 1.6-0.3 0.2-3.9 2.4-8 4.7-4.1 2.4-11.6 6.5-16.5 9.2-4.9 2.7-14.2 7.4-20.5 10.5-6.3 3-14.7 6.7-18.5 8.1-3.8 1.3-10.8 3.6-15.5 4.9-4.7 1.4-10.8 2.9-13.5 3.4-2.8 0.5-9.5 1.4-15 1.9q-10 1-18.5-0.1c-4.7-0.6-10.3-1.8-12.5-2.8-2.2-1-5.7-3.3-7.8-5.2-2.2-1.9-5.1-5.9-6.5-8.9-2.5-5-2.7-6.5-2.6-17 0.1-10.5 0.4-12.2 3.4-19.5 1.7-4.4 4.4-10 5.8-12.5 1.4-2.5 5.7-9 9.6-14.5 3.9-5.5 9.5-12.9 12.5-16.5 2.9-3.6 9.7-10.9 14.9-16.2 6.1-6.2 10.2-9.6 11.2-9.3zm208 1.7c1.9-0.2 4.6 1.9 12.1 9.5 5.2 5.4 12 12.7 15 16.3 3 3.6 7.3 9 9.5 12 2.2 3 5.4 7.7 7.1 10.5 1.7 2.7 4.9 8.6 7.1 13 2.2 4.4 4.8 10.1 5.6 12.7 1 3.1 1.6 8.3 1.6 14.5 0 8.7-0.3 10.5-2.8 15.8-1.8 3.7-4.5 7.5-7.3 9.8-2.4 2.1-6.9 4.8-9.9 6-4.8 1.9-7.3 2.2-19.5 2.2-9.4-0.1-16.6-0.7-22-1.8-4.4-1-11.8-2.9-16.5-4.3-4.7-1.4-12.6-4.1-17.5-6.1-4.9-1.9-12.8-5.4-17.5-7.6-4.7-2.2-14.4-7.3-21.5-11.2-7.1-3.9-19.1-11.1-26.5-16-7.4-4.9-17.8-12-23-15.8-5.2-3.9-14.7-11.3-21-16.6-6.3-5.3-14.6-12.7-18.5-16.6-3.9-3.9-8.8-9.2-15-16.6l5-4.9 23 2.4 8.5 8.2c4.7 4.5 11.7 10.8 15.5 14.1 3.8 3.3 10.8 8.9 15.5 12.5 4.7 3.5 12.1 8.9 16.5 11.8 4.4 3 12.9 8.3 19 11.8 6.1 3.5 17.3 9.4 25 13.2 7.7 3.8 18.1 8.4 23 10.3 4.9 1.8 11.7 4.4 15 5.5 3.3 1.2 9.8 3.1 14.5 4.3 5.5 1.4 11.8 2.1 18 2.2 5.2 0 10.7-0.5 12.3-1.1 1.5-0.7 3.4-2.7 4.3-4.4 1.2-2.4 1.5-5 1.2-9.3-0.3-3.5-1.7-8.7-3.4-12.5-1.6-3.6-6.5-11.2-10.8-17-4.4-5.8-11.3-14.6-15.5-19.5-4.2-4.9-11.7-13.1-25.8-27l3.4-4.5c3.1-4.1 4-4.6 8.6-5.1 2.9-0.3 6.3-0.7 7.7-0.7z"/>
	</g>
</svg>